<svg width="10" height="11" viewBox="0 0 10 11" xmlns="http://www.w3.org/2000/svg">
<path fill-rule="evenodd" clip-rule="evenodd" d="M5 4.58982L8.78064 0.809185C9.05958 0.530239 9.51184 0.530239 9.79079 0.809185C10.0697 1.08813 10.0697 1.54039 9.79079 1.81934L6.01015 5.59998L9.79079 9.38061C10.0697 9.65956 10.0697 10.1118 9.79079 10.3908C9.51184 10.6697 9.05958 10.6697 8.78064 10.3908L5 6.61013L1.21936 10.3908C0.940416 10.6697 0.488155 10.6697 0.209209 10.3908C-0.0697365 10.1118 -0.0697365 9.65956 0.209209 9.38061L3.98985 5.59998L0.209209 1.81934C-0.0697365 1.54039 -0.0697365 1.08813 0.209209 0.809185C0.488155 0.530239 0.940416 0.530239 1.21936 0.809185L5 4.58982Z"/>
</svg>
